/* XPM */
static char *gummi[] = {
/* columns rows colors chars-per-pixel */
"26 26 122 2 ",
"   c #000001",
".  c #060804",
"X  c #0A0E06",
"o  c #0C0C0C",
"O  c #11150C",
"+  c #171E0F",
"@  c #161C11",
"#  c #191F13",
"$  c #18151C",
"%  c #191919",
"&  c #1A2213",
"*  c #1F2A15",
"=  c #1E2418",
"-  c #21261B",
";  c #252A1F",
":  c #223016",
">  c #27341B",
",  c #2A3C1A",
"<  c #272D25",
"1  c #292C24",
"2  c #272629",
"3  c #28272B",
"4  c #2D2D2A",
"5  c #2A3520",
"6  c #2E3C21",
"7  c #323D26",
"8  c #31332B",
"9  c #30431F",
"0  c #324720",
"q  c #364B23",
"w  c #394E26",
"e  c #374728",
"r  c #394B2D",
"t  c #3A5325",
"y  c #415C2A",
"u  c #46602F",
"i  c #48642D",
"p  c #496232",
"a  c #4F6D33",
"s  c #567537",
"d  c #56723A",
"f  c #5C7D3C",
"g  c #566848",
"h  c #657E53",
"j  c #678B44",
"k  c #698C46",
"l  c #6B8A4C",
"z  c #6A9544",
"x  c #719D4A",
"c  c #749E51",
"v  c #7C9F57",
"b  c #72A14A",
"n  c #76AA49",
"m  c #7AAE4D",
"M  c #7DB24D",
"N  c #7FB84F",
"B  c #77A053",
"V  c #7BA354",
"C  c #7DAD51",
"Z  c #7EB251",
"A  c #80B54F",
"S  c #80AF56",
"D  c #83AF5D",
"F  c #82B454",
"G  c #84B953",
"H  c #89BD57",
"J  c #84B45A",
"K  c #89B65C",
"L  c #86B95B",
"P  c #8BBB5D",
"I  c #86B460",
"U  c #8BB662",
"Y  c #87BA60",
"T  c #8CBB62",
"R  c #8DBD69",
"E  c #92BD65",
"W  c #94BC6C",
"Q  c #98BF73",
"!  c #92C364",
"~  c #95C36C",
"^  c #9AC36D",
"/  c #95C371",
"(  c #9BC474",
")  c #9CCC73",
"_  c #9ECB7A",
"`  c #A2CB76",
"'  c #A1C57C",
"]  c #A6CE7F",
"[  c #A9CF7D",
"{  c #A5DC76",
"}  c #A8D27C",
"|  c #A7CC82",
" . c #A9CB84",
".. c #ABCB8A",
"X. c #ACD586",
"o. c #AEDB86",
"O. c #AFDC8C",
"+. c #B3D78B",
"@. c #B6DD8F",
"#. c #AFDB90",
"$. c #B3D393",
"%. c #B3D49A",
"&. c #BCDD9B",
"*. c #B6E099",
"=. c #BCE49A",
"-. c #BDDFA0",
";. c #C0DAA3",
":. c #C3E5A6",
">. c #C3E8A8",
",. c #D0EDAF",
"<. c #C7E0B1",
"1. c #CBE4B0",
"2. c #C7C7C4",
"3. c #DBEFC3",
"4. c #DBEBCD",
"5. c #DFF8CB",
"6. c #E0F0C7",
"7. c #E2E4E1",
"8. c #EFFAE9",
"9. c #F3FAE2",
"0. c #FEFFE6",
"q. c None",
/* pixels */
"o % % % % % % % % % % % % % % % $ % % $ % % $ % % % ",
"o q.q.2                                     3 q.q.  ",
"o q.  y G N N G N N G G G G G G G G F L Y Z y   q.  ",
"o 2 y m M N n n Z n n N M m C C C A C C Z Z Z p 3   ",
"o   Z m n M Z M m M n N G A A C C Z C C Z Z C L     ",
"o   M M M n Z Z M Z a 9 , , 9 i z P F C I Z C P     ",
"o   M n Z m m M 9       : q > X     w V Z Y Z T     ",
"o   N n n Z x       * F F G G G w     l Z Y Z P     ",
"o   G m n m X       G Z J Z G J H &   k K K J T     ",
"o   N C A t       9 H J Z J Z L K d   k K L T T     ",
"o   N n A o       f Z P J L J L P S j D K U R T     ",
"o   N m b         x L J P L Y N T P K Y U U R R .   ",
"o   J m z         C Z Y G ! L Y L T P E R U / R .   ",
"o   F Z z         K D C R L Z B B B V v W W / /     ",
"o   N m x         V K K Z ~ -         O ( Q Q _     ",
"o   L A C .       j J Y U J ) { 6     + ' ( Q X.    ",
"o   G m F >       p J K I E I ) >     @ } ' ' #.    ",
"o   L C C x       O ! K I U W ~ >     @ o.| ..*.    ",
"o   J M C F a       d T T T R ' 5     # o.+.$.-.    ",
"o   G M Z Z F s       e l v l r       g =.*.;.1.    ",
"o   H F F G A F F y # .       O 7 h $.$.:.>.,.3.    ",
"o . F A A S K K P P ! K K E W ] | ....%.;.3.5.0.    ",
"o 2 s F S F F S K K E ! ~ ~ ~ ( '  .$.;.<.4.8.2.q.  ",
"o q.. k F F G K K P E E ^ ^ ` [ o.@.=.:.6.9.7.  q.  ",
"o q.q.$ @ # # & # & & = = - - ; 1 1 4 8 1 8 q.q.q.  ",
"o                                                   "
};
