/* XPM */
static char *mplayer___x__[] = {
/* columns rows colors chars-per-pixel */
"16 16 50 1",
"  c black",
". c #020202",
"X c gray7",
"o c #1E1547",
"O c #1F1649",
"+ c #221850",
"@ c #261A58",
"# c #2A1D62",
"$ c #2E206C",
"% c #312273",
"& c #322374",
"* c #4B4B4B",
"= c gray37",
"- c gray42",
"; c #0C5A89",
": c #0A5E8C",
"> c #12578D",
", c #155892",
"< c #046186",
"1 c #0B6898",
"2 c #04739F",
"3 c #0B70A4",
"4 c #0D70A6",
"5 c #0875A5",
"6 c #067AA8",
"7 c #5E5292",
"8 c #5F5392",
"9 c #605493",
"0 c #08A6E4",
"q c #11AAE6",
"w c #26B2E9",
"e c gray58",
"r c #8E88AB",
"t c #9A93BA",
"y c #9C95BC",
"u c #B7B6B7",
"i c #B7B7B7",
"p c #BAB9BA",
"a c #B6B0CD",
"s c #B7B2CE",
"d c #BAB5D0",
"f c #BEB9D3",
"g c #D2D2D2",
"h c gray93",
"j c #EBF8FD",
"k c #FAFAFC",
"l c #FBFBFC",
"z c #FDFCFD",
"x c gray100",
"c c None",
/* pixels */
"cccccccccccccccc",
"ccccccco$&+ccccc",
"cccc5:>,,,,;cccc",
"cc<0qwwwwwwq0<cc",
"cc1qjxkaakxjq6cc",
"c@4wxa7yy7axw5cc",
"c%4wk7p-hx7kw3cc",
"c#4wfyi Xetaw4Oc",
"cO4wfyi  =rdw4#c",
"cc3wk7i*gx9kw4%c",
"cc5wxa7ty7axw4@c",
"cc6qjxxdakxjq1cc",
"cc<0qwwwwwwq0<cc",
"cccc;,,,,>:2cccc",
"ccccc+&$occccccc",
"cccccccccccccccc"
};
